<svg id="OBJECTS" xmlns="http://www.w3.org/2000/svg" viewBox="0 0 416.23 161.33"><defs><style>.cls-1{font-size:156.17px;font-family:BebasNeue-Bold, Bebas Neue;font-weight:700;}</style></defs><title>logo</title><path d="M185.58,58.83l-20-34.71a55,55,0,0,0-40.06,34.71Z"/><path d="M197.76,75.74l20-34.7A55,55,0,0,0,167.72,23.7Z"/><path d="M229.29,94.75a55,55,0,0,0-10-52l-30.05,52Z"/><path d="M156.28,79.93l-20,34.7A55,55,0,0,0,186.33,132Z"/><path d="M164.84,60.92H124.76a55,55,0,0,0,10,52Z"/><path d="M168.46,96.85l20,34.71a55.06,55.06,0,0,0,40.07-34.71Z"/><text class="cls-1" transform="translate(0 132.74) scale(1.32 1)">IS</text><text class="cls-1" transform="translate(240.59 133.38) scale(1.15 1)">‘73</text></svg>